<svg width="2871" height="957" viewBox="0 0 2871 957" fill="none" xmlns="http://www.w3.org/2000/svg">
<path d="M405 54.4L346.2 130.6C319.8 109.6 288.6 97.6 258 97C183 100 124.8 155.8 124.8 229.6C124.8 301.6 181.8 361 258 361.6C288.6 361.6 320.4 349 346.2 328L405 404.8C397.2 412.6 343.8 458.8 257.4 458.8C130.2 458.8 28.2 356.8 28.2 229.6C28.2 102.4 130.2 0.399975 257.4 0.399975C344.4 0.399975 396.6 46 405 54.4ZM541.734 38.8V156.4C555.534 151.6 569.334 149.2 584.334 149.2C668.934 149.2 718.734 197.2 718.734 283V454H626.934V284.2C626.934 260.2 607.734 241 584.334 241C560.934 241 541.134 260.2 541.134 284.2V454H450.534V38.8H541.734ZM854.958 304C854.958 340 882.558 368.2 917.958 368.2C954.558 368.2 981.558 340 981.558 304C981.558 268 954.558 239.8 917.958 239.8C882.558 239.8 854.958 268 854.958 304ZM763.758 304C763.758 219.4 832.758 149.2 917.958 149.2C943.758 149.2 967.758 155.2 988.758 166.6V154H1073.36V457H995.358V437.8C971.958 451.6 946.158 458.8 917.958 458.8C832.758 458.8 763.758 388.6 763.758 304ZM1180.85 154V71.8H1272.05V154H1338.05V237.4H1272.05V454H1180.85V237.4H1113.05V154H1180.85Z" fill="white"/>
<path d="M364.4 502.2H453.2L633.2 761.4V502.8H725V951H636.8L456.2 691.2V951H364.4V502.2ZM864.903 800.4C864.903 835.8 892.503 863.4 927.903 863.4C962.103 863.4 990.303 835.8 990.303 800.4C990.303 766.2 962.103 738 927.903 738C892.503 738 864.903 766.2 864.903 800.4ZM773.103 800.4C773.103 715.2 841.503 646.2 927.903 646.2C1013.1 646.2 1082.1 715.2 1082.1 800.4C1082.1 886.8 1013.1 955.8 927.903 955.8C841.503 955.8 773.103 886.8 773.103 800.4ZM1433.93 951H1357.73L1306.13 805.8C1291.73 843.6 1259.33 945.6 1256.33 951H1179.53L1098.53 651H1195.13C1213.73 728.4 1225.13 775.2 1230.53 799.8L1271.33 651.6H1342.73L1385.33 796.2C1396.73 748.2 1408.13 698.4 1418.33 651H1514.33L1433.93 951Z" fill="white"/>
<path d="M1461.2 34.8984C1461.2 39.3344 1460.87 48.0984 1460.44 54.3738L1459.79 65.9508H1456.87H1453.95L1453.3 78.0689C1452.87 84.7771 1452.54 97.0033 1452.54 105.118V119.941L1449.08 120.266L1445.51 120.59L1445.18 144.069L1444.97 167.656H1441.18H1437.39L1437.18 191.134L1436.85 214.721L1433.39 215.046L1429.82 215.37V227.056C1429.82 233.439 1429.49 243.934 1429.06 250.21L1428.41 261.787H1425.49H1422.57L1421.92 273.364C1421.49 279.639 1421.16 290.134 1421.16 296.518V308.203L1417.7 308.528L1414.13 308.852L1413.81 332.331L1413.59 355.918H1416.08C1417.48 355.918 1420.95 355.593 1423.76 355.269C1428.3 354.62 1428.74 354.295 1428.74 351.59C1428.74 348.561 1428.85 348.561 1437.39 347.803C1445.94 347.046 1446.05 347.046 1446.05 344.016C1446.05 341.311 1446.48 340.987 1451.03 340.338C1453.84 340.013 1458.92 339.689 1462.39 339.689H1468.77V335.902V332.115H1480.13H1491.49V328.328V324.541H1497.77C1501.12 324.541 1506.53 324.216 1509.67 323.892C1514.97 323.243 1515.29 322.918 1515.29 320.213C1515.29 317.292 1515.51 317.184 1523.41 316.426C1531.52 315.669 1531.52 315.669 1531.52 312.531V309.393H1539.1H1546.67V315.02C1546.67 318.157 1547 323.351 1547.32 326.38C1547.97 331.79 1548.29 332.115 1551.11 332.115C1554.03 332.115 1554.03 332.223 1554.79 340.23C1555.54 348.128 1555.65 348.344 1558.57 348.344C1561.28 348.344 1561.6 348.777 1562.25 353.321C1562.58 356.134 1562.9 361.22 1562.9 364.682V371.066H1566.69H1570.48V379.18V387.295H1574.26H1578.05V393.679C1578.05 397.141 1578.37 402.226 1578.7 405.039C1579.35 409.584 1579.67 410.016 1582.38 410.016C1585.3 410.016 1585.41 410.233 1586.16 418.131C1586.92 426.138 1586.92 426.246 1589.95 426.246C1592.87 426.246 1592.98 426.462 1593.74 433.711C1594.49 441.177 1594.49 441.285 1597.85 441.61L1601.31 441.934L1601.64 449.725L1601.96 457.623H1605.64H1609.32L1609.64 465.413L1609.97 473.311L1613.54 473.636L1617 473.961V481.534V489H1620.68H1624.36L1625.11 497.115L1625.87 505.23H1629.55H1633.23V512.803V520.377H1637.02H1640.8V527.951V535.525H1644.48H1648.05L1648.81 542.99C1649.57 550.564 1649.57 550.564 1653.03 550.889C1656.17 551.213 1656.49 551.538 1656.82 555.216C1657.14 559.111 1657.36 559.328 1660.93 559.328H1664.61V566.902V574.475H1668.28H1671.96L1672.72 582.59C1673.48 590.705 1673.48 590.705 1676.62 590.705C1679.43 590.705 1679.75 591.03 1679.75 594.492C1679.75 598.062 1679.97 598.279 1683.43 598.279H1687.11L1687.87 605.744C1688.63 613.21 1688.63 613.318 1691.98 613.643C1695.12 613.967 1695.44 614.4 1695.77 617.97C1696.09 621.866 1696.31 622.082 1699.88 622.082C1703.45 622.082 1703.56 622.19 1703.56 626.41C1703.56 630.63 1703.67 630.738 1707.34 630.738H1711.02L1711.35 637.987L1711.67 645.344L1715.13 645.669C1718.16 645.993 1718.6 646.426 1718.92 649.456C1719.25 652.593 1719.57 652.918 1723.36 653.243C1727.25 653.567 1727.36 653.675 1727.36 657.895C1727.36 662.007 1727.47 662.115 1731.15 662.115H1734.93V669.148V676.18H1738.72C1742.4 676.18 1742.51 676.289 1742.51 680.508C1742.51 684.728 1742.62 684.836 1746.29 684.836C1749.87 684.836 1750.08 685.052 1750.08 688.515C1750.08 692.085 1750.3 692.302 1754.19 692.626C1757.98 692.951 1758.2 693.167 1758.52 697.062C1758.85 700.849 1759.06 701.066 1762.63 701.066C1766.09 701.066 1766.31 701.282 1766.31 704.852C1766.31 708.423 1766.53 708.639 1770.1 708.639H1773.88V716.213V723.787H1778.21C1782.43 723.787 1782.54 723.895 1782.54 727.574C1782.54 731.144 1782.76 731.361 1786.33 731.361C1789.9 731.361 1790.11 731.577 1790.11 735.148C1790.11 738.718 1790.33 738.934 1793.9 738.934C1797.58 738.934 1797.69 739.043 1797.69 743.262C1797.69 747.482 1797.8 747.59 1801.48 747.59C1805.05 747.59 1805.26 747.807 1805.26 751.377C1805.26 755.056 1805.37 755.164 1809.59 755.164C1813.81 755.164 1813.92 755.272 1813.92 758.951C1813.92 762.521 1814.13 762.738 1817.7 762.738C1821.28 762.738 1821.49 762.954 1821.49 766.525C1821.49 770.095 1821.71 770.311 1825.28 770.311C1828.85 770.311 1829.07 770.528 1829.07 774.098C1829.07 777.669 1829.28 777.885 1832.85 777.885C1836.53 777.885 1836.64 777.993 1836.64 782.213V786.541H1844.1H1851.68L1852 790.544C1852.33 794.439 1852.54 794.656 1856.44 794.98C1860.23 795.305 1860.44 795.521 1860.44 799.092C1860.44 802.554 1860.66 802.77 1864.23 802.77C1867.8 802.77 1868.02 802.987 1868.02 806.557C1868.02 810.128 1868.23 810.344 1871.8 810.344C1875.37 810.344 1875.59 810.561 1875.59 814.131C1875.59 817.81 1875.7 817.918 1879.92 817.918C1884.14 817.918 1884.25 818.026 1884.25 821.705V825.492H1891.82H1899.39V829.279C1899.39 832.849 1899.61 833.066 1903.07 833.066C1906.64 833.066 1906.86 833.282 1907.18 837.069C1907.51 840.964 1907.72 841.18 1911.62 841.505C1915.19 841.83 1915.62 842.154 1915.62 844.967C1915.62 847.997 1915.73 848.105 1923.2 848.862L1930.77 849.62V853.082V856.544L1938.34 857.302C1945.81 858.059 1945.92 858.167 1945.92 861.197C1945.92 864.01 1946.35 864.334 1950.03 864.659C1953.6 864.984 1954.03 865.308 1954.36 868.446C1954.68 871.8 1954.79 871.8 1962.26 872.557L1969.72 873.315V876.993V880.672H1977.29H1984.87V884.459V888.246H1992.98H2001.1V891.925V895.495L2008.67 896.252C2016.14 897.01 2016.25 897.118 2016.25 900.148C2016.25 903.177 2016.35 903.177 2024.36 903.934C2032.26 904.692 2032.47 904.8 2032.47 907.721C2032.47 910.426 2032.8 910.751 2038.21 911.4C2041.24 911.725 2046.43 912.049 2049.57 912.049H2055.2V915.836V919.623H2063.85H2072.51V923.41V927.197H2083.87H2095.23V930.875V934.554L2110.92 935.311L2126.61 936.069V939.098C2126.61 941.911 2126.93 942.02 2133.21 942.777C2136.88 943.102 2147.38 943.426 2156.47 943.426H2173.13V947.213V951H2255.9H2338.67V947.213V943.426H2355.77C2365.07 943.426 2375.35 943.102 2378.49 942.777C2383.79 942.128 2384.11 941.911 2384.11 938.99C2384.11 935.961 2384.22 935.852 2389.96 935.852C2393.09 935.852 2398.72 935.528 2402.4 935.203C2408.67 934.446 2409 934.338 2409 931.525C2409 928.82 2409.43 928.495 2414.63 927.846C2417.76 927.521 2424.58 927.197 2429.88 927.197H2439.29V923.41V919.623H2451.2H2463.1V915.836V912.049H2471.21H2479.33V908.262V904.475H2485.06C2488.09 904.475 2493.18 904.151 2496.31 903.826C2501.62 903.177 2501.94 902.961 2502.27 899.715L2502.59 896.361L2510.49 896.036L2518.28 895.711V892.033V888.246H2525.85H2533.43V884.459V880.672H2541.54H2549.66V876.993V873.315L2557.12 872.557C2564.59 871.8 2564.69 871.8 2565.02 868.446C2565.34 865.308 2565.78 864.984 2569.46 864.659C2573.03 864.334 2573.46 864.01 2573.46 861.197C2573.46 858.167 2573.57 858.059 2581.03 857.302L2588.61 856.544V852.974V849.295H2596.18H2603.75V845.508C2603.75 841.83 2603.86 841.721 2608.08 841.721C2612.3 841.721 2612.41 841.613 2612.41 838.043V834.364L2619.98 833.607L2627.56 832.849V829.17C2627.56 825.6 2627.67 825.492 2631.88 825.492C2636.1 825.492 2636.21 825.384 2636.21 821.813V818.134L2643.79 817.377C2651.25 816.62 2651.36 816.62 2651.36 813.482C2651.36 810.669 2651.68 810.344 2655.15 810.344C2658.72 810.344 2658.93 810.128 2658.93 806.666C2658.93 803.095 2659.15 802.879 2663.05 802.554C2666.83 802.23 2667.05 802.013 2667.37 798.118L2667.7 794.115H2675.27H2682.74V790.328C2682.74 786.757 2682.95 786.541 2686.52 786.541C2690.09 786.541 2690.31 786.325 2690.31 782.754C2690.31 779.184 2690.53 778.967 2694.1 778.967C2697.67 778.967 2697.88 778.751 2697.88 775.289C2697.88 771.718 2698.1 771.502 2702 771.177C2705.78 770.852 2706 770.636 2706.32 766.741C2706.65 762.954 2706.87 762.738 2710.44 762.738C2713.9 762.738 2714.11 762.521 2714.11 758.951C2714.11 755.272 2714.22 755.164 2718.44 755.164C2722.66 755.164 2722.77 755.056 2722.77 751.377C2722.77 747.807 2722.99 747.59 2726.56 747.59C2730.13 747.59 2730.34 747.374 2730.34 743.911V740.233L2737.92 739.475L2745.49 738.718V735.039C2745.49 731.577 2745.71 731.361 2749.28 731.361C2752.85 731.361 2753.07 731.144 2753.07 727.574C2753.07 724.003 2753.28 723.787 2756.74 723.787C2760.31 723.787 2760.53 723.57 2760.86 719.675C2761.18 715.997 2761.5 715.672 2764.64 715.348C2767.67 715.023 2768.1 714.59 2768.43 711.561C2768.75 708.531 2769.19 708.098 2772.22 707.774C2775.25 707.449 2775.68 707.016 2776 703.987C2776.33 700.849 2776.76 700.525 2780.33 700.2L2784.23 699.875L2784.98 692.302L2785.74 684.836H2789.42C2792.88 684.836 2793.1 684.62 2793.1 681.049C2793.1 677.479 2793.31 677.262 2796.88 677.262C2800.46 677.262 2800.67 677.046 2800.67 673.584C2800.67 670.121 2801 669.797 2804.24 669.472C2807.38 669.148 2807.7 668.823 2808.03 665.036C2808.35 661.249 2808.57 661.033 2812.14 661.033C2815.6 661.033 2815.82 660.816 2815.82 657.246C2815.82 653.675 2816.04 653.459 2819.5 653.459C2823.07 653.459 2823.28 653.243 2823.61 649.348C2823.93 645.669 2824.26 645.344 2827.4 645.02C2830.86 644.695 2830.86 644.695 2831.62 637.121L2832.37 629.656H2835.94C2839.41 629.656 2839.62 629.439 2839.62 625.869C2839.62 622.298 2839.84 622.082 2843.3 622.082C2846.87 622.082 2847.09 621.866 2847.41 617.97C2847.74 614.4 2848.06 613.967 2851.09 613.643C2854.45 613.318 2854.55 613.21 2855.31 606.393C2855.96 599.577 2856.07 599.469 2859.42 599.144C2862.56 598.82 2862.88 598.495 2863.21 594.708C2863.53 590.921 2863.75 590.705 2867.32 590.705C2870.78 590.705 2871 590.489 2871 586.918C2871 583.239 2870.89 583.131 2866.67 583.131C2862.45 583.131 2862.34 583.239 2862.34 586.918V590.705H2854.77H2847.2V594.384V598.062L2839.73 598.82C2832.27 599.577 2832.16 599.577 2831.83 602.931C2831.51 606.069 2831.07 606.393 2827.5 606.718C2823.83 607.043 2823.39 607.367 2823.39 610.18C2823.39 613.102 2823.28 613.21 2815.82 613.967L2808.25 614.725V618.403C2808.25 621.974 2808.14 622.082 2803.92 622.082C2799.7 622.082 2799.59 622.19 2799.59 625.869V629.656H2792.02H2784.44V633.334V637.013L2776.98 637.77C2769.51 638.528 2769.4 638.528 2769.08 641.882C2768.75 645.02 2768.32 645.344 2764.75 645.669C2761.07 645.993 2760.64 646.318 2760.64 649.131C2760.64 652.161 2760.53 652.269 2753.07 653.026L2745.49 653.784V657.354V661.033H2737.92H2730.34V664.711V668.39L2722.23 669.148L2714.11 669.905V673.584C2714.11 677.154 2714.01 677.262 2709.79 677.262C2705.67 677.262 2705.46 677.479 2705.46 680.4C2705.46 683.538 2705.35 683.646 2697.88 684.403L2690.31 685.161V688.731V692.41H2682.74H2675.16V696.089V699.767L2667.05 700.525C2659.04 701.282 2658.93 701.282 2658.93 704.311C2658.93 707.233 2658.72 707.341 2651.47 708.098C2644 708.856 2643.89 708.856 2643.57 712.21L2643.25 715.672L2635.46 715.997L2627.56 716.321V720V723.787H2619.98H2612.41V727.574V731.361H2604.29H2596.18V735.148V738.934H2590.55C2587.42 738.934 2582.22 739.259 2579.19 739.584C2573.57 740.341 2573.46 740.341 2573.46 743.911V747.59H2565.34H2557.23V751.377V755.164H2545.87H2534.51V758.951V762.738H2526.39H2518.28V766.525V770.311H2512.98C2510.16 770.311 2504.75 770.636 2501.07 770.961C2494.8 771.718 2494.47 771.826 2494.47 774.639C2494.47 777.344 2494.04 777.669 2488.85 778.318C2485.71 778.643 2480.3 778.967 2476.95 778.967H2470.67V782.754V786.541H2455.52H2440.38V790.328V794.115H2429.88C2424.04 794.115 2416.68 794.439 2413.65 794.764C2408.24 795.413 2407.92 795.738 2407.92 798.443V801.472L2384.66 802.23L2361.39 802.987V806.016V808.938L2343.32 809.587C2320.17 810.561 2269.53 810.561 2246.38 809.587L2228.31 808.938V805.8C2228.31 802.77 2228.31 802.77 2221.06 802.77C2216.95 802.77 2208.19 802.446 2201.59 802.013L2189.36 801.364V798.443C2189.36 795.738 2188.93 795.413 2183.73 794.764C2180.6 794.439 2173.46 794.115 2168.05 794.115H2157.98V790.328V786.541H2146.08H2134.18V782.754V778.967H2127.8C2124.33 778.967 2119.25 778.643 2116.44 778.318C2111.89 777.669 2111.46 777.344 2111.46 774.639C2111.46 771.718 2111.24 771.61 2103.34 770.852C2095.34 770.095 2095.23 770.095 2095.23 767.066C2095.23 764.036 2095.12 764.036 2087.11 763.279L2079 762.521V758.843V755.164H2071.43H2063.85V751.377V747.698L2056.06 747.374L2048.16 747.049L2047.84 743.587C2047.51 740.233 2047.41 740.233 2039.94 739.475L2032.47 738.718V735.039V731.361H2024.9H2017.33V727.574C2017.33 723.895 2017.22 723.787 2013 723.787C2008.78 723.787 2008.67 723.679 2008.67 720V716.213H2001.1H1993.52V712.534C1993.52 708.964 1993.31 708.748 1989.52 708.423C1985.84 708.098 1985.41 707.774 1985.08 704.636C1984.76 701.282 1984.65 701.282 1977.19 700.525L1969.72 699.767V696.089C1969.72 692.626 1969.5 692.41 1965.93 692.41C1962.36 692.41 1962.15 692.193 1962.15 688.731V685.161L1954.68 684.403C1947.11 683.646 1947.11 683.646 1946.78 680.184C1946.46 677.046 1946.13 676.721 1942.46 676.397C1938.56 676.072 1938.34 675.856 1938.34 672.285C1938.34 668.823 1938.13 668.607 1934.56 668.607C1930.99 668.607 1930.77 668.39 1930.77 664.82C1930.77 661.249 1930.55 661.033 1926.98 661.033C1923.41 661.033 1923.2 660.816 1923.2 657.246C1923.2 653.567 1923.09 653.459 1918.87 653.459C1914.65 653.459 1914.54 653.351 1914.54 649.78V646.102L1906.97 645.344L1899.39 644.587V640.908C1899.39 637.446 1899.18 637.23 1895.61 637.23C1892.04 637.23 1891.82 637.013 1891.82 633.443C1891.82 629.872 1891.6 629.656 1888.03 629.656C1884.46 629.656 1884.25 629.439 1884.25 625.977C1884.25 622.407 1884.03 622.19 1880.24 621.866C1876.46 621.541 1876.13 621.216 1875.81 618.079C1875.48 615.049 1875.05 614.616 1872.02 614.292C1868.88 613.967 1868.56 613.643 1868.23 609.856C1867.91 606.069 1867.69 605.852 1864.12 605.852C1860.66 605.852 1860.44 605.636 1860.44 602.066C1860.44 598.495 1860.23 598.279 1856.66 598.279C1853.08 598.279 1852.87 598.062 1852.87 594.492C1852.87 590.813 1852.76 590.705 1848.54 590.705C1844.32 590.705 1844.21 590.597 1844.21 586.918C1844.21 583.348 1844 583.131 1840.43 583.131C1836.75 583.131 1836.64 583.023 1836.64 578.803C1836.64 574.584 1836.53 574.475 1832.85 574.475C1829.28 574.475 1829.07 574.259 1829.07 570.689C1829.07 567.118 1828.85 566.902 1825.28 566.902C1821.71 566.902 1821.49 566.685 1821.49 563.115C1821.49 559.544 1821.28 559.328 1817.81 559.328H1814.13L1813.38 551.754L1812.62 544.18H1808.94C1805.48 544.18 1805.26 543.964 1805.26 540.393C1805.26 536.823 1805.05 536.607 1801.48 536.607C1797.8 536.607 1797.69 536.498 1797.69 532.279C1797.69 528.059 1797.58 527.951 1793.9 527.951C1790.33 527.951 1790.11 527.734 1790.11 524.272C1790.11 520.702 1789.9 520.485 1786.11 520.161C1782.32 519.836 1782 519.511 1781.68 516.374C1781.35 513.344 1780.92 512.911 1777.89 512.587C1774.75 512.262 1774.43 511.938 1774.1 508.151C1773.78 504.364 1773.56 504.148 1769.99 504.148H1766.31V496.574V489H1762.52C1758.95 489 1758.74 488.784 1758.74 485.321C1758.74 481.751 1758.52 481.534 1754.73 481.21C1750.84 480.885 1750.62 480.669 1750.3 476.774C1749.97 472.987 1749.76 472.77 1746.19 472.77C1742.72 472.77 1742.51 472.554 1742.51 468.984C1742.51 465.413 1742.29 465.197 1738.72 465.197H1734.93V457.623V450.049H1731.26C1727.68 450.049 1727.47 449.833 1727.14 445.938C1726.82 442.259 1726.49 441.934 1723.36 441.61C1720.33 441.285 1719.89 440.852 1719.57 437.823C1719.25 434.685 1718.92 434.361 1715.24 434.036C1711.24 433.711 1711.13 433.603 1711.13 429.384C1711.13 425.272 1711.02 425.164 1707.34 425.164H1703.56V418.131V411.098H1699.77C1696.09 411.098 1695.98 410.99 1695.98 406.77C1695.98 402.551 1695.88 402.443 1692.3 402.443H1688.63L1687.87 394.869L1687.11 387.295H1683.43C1679.97 387.295 1679.75 387.079 1679.75 383.616C1679.75 380.154 1679.43 379.83 1676.29 379.505C1673.05 379.18 1672.72 378.856 1672.4 375.069C1672.07 371.282 1671.86 371.066 1668.28 371.066H1664.61V363.492V355.918H1660.93C1657.36 355.918 1657.14 355.702 1656.82 351.807C1656.49 348.236 1656.17 347.803 1653.03 347.479C1649.68 347.154 1649.68 347.046 1648.92 339.58L1648.16 332.115H1644.48C1641.02 332.115 1640.8 331.898 1640.8 328.328C1640.8 324.757 1640.59 324.541 1637.02 324.541H1633.23V316.967V309.393H1629.44C1625.76 309.393 1625.66 309.285 1625.66 305.066C1625.66 300.846 1625.55 300.738 1621.98 300.738C1618.41 300.738 1618.41 300.63 1617.65 295.003C1617.32 291.974 1617 286.889 1617 283.859V278.341L1622.73 277.584C1625.76 277.259 1631.17 276.934 1634.64 276.934H1640.8V273.148V269.361H1648.92H1657.03V265.574V261.787H1668.39H1679.75V258V254.213H1686.03C1689.38 254.213 1694.79 253.889 1697.93 253.564C1703.45 252.807 1703.56 252.807 1703.56 249.236V245.557H1711.67H1719.79V237.984V230.41H1715.46C1711.24 230.41 1711.13 230.302 1711.13 226.623C1711.13 223.052 1710.91 222.836 1707.34 222.836C1703.77 222.836 1703.56 222.62 1703.56 219.157C1703.56 215.587 1703.34 215.37 1699.55 215.046C1695.77 214.721 1695.44 214.397 1695.12 211.259C1694.79 207.797 1694.79 207.797 1687.22 207.039L1679.75 206.282V202.711C1679.75 199.249 1679.54 199.033 1675.97 199.033C1672.4 199.033 1672.18 198.816 1672.18 195.246C1672.18 191.675 1671.96 191.459 1668.39 191.459C1664.82 191.459 1664.61 191.243 1664.61 187.78C1664.61 184.21 1664.39 183.993 1660.6 183.669C1656.82 183.344 1656.49 183.02 1656.17 179.882C1655.84 176.42 1655.84 176.42 1648.27 175.662L1640.8 174.905V171.334C1640.8 167.872 1640.59 167.656 1637.02 167.656C1633.45 167.656 1633.23 167.439 1633.23 163.869C1633.23 160.298 1633.01 160.082 1629.44 160.082C1625.87 160.082 1625.66 159.866 1625.66 156.403C1625.66 152.833 1625.44 152.616 1621.65 152.292C1617.76 151.967 1617.54 151.751 1617.22 147.856C1616.89 144.069 1616.68 143.852 1613.1 143.852C1609.64 143.852 1609.43 143.636 1609.43 140.066V136.279H1601.85H1594.28V132.6C1594.28 129.03 1594.06 128.813 1590.28 128.489C1586.49 128.164 1586.16 127.839 1585.84 124.593C1585.51 121.456 1585.19 121.131 1581.73 121.131C1578.27 121.131 1578.05 120.915 1578.05 117.344C1578.05 113.774 1577.83 113.557 1574.26 113.557C1570.58 113.557 1570.48 113.449 1570.48 109.23V104.902H1562.9H1555.33V101.223C1555.33 97.6525 1555.11 97.4361 1551.32 97.1115C1547.54 96.7869 1547.21 96.4623 1546.89 93.2164C1546.56 90.0787 1546.24 89.7541 1542.78 89.7541C1539.21 89.7541 1539.1 89.6459 1539.1 85.4262C1539.1 81.2066 1538.99 81.0984 1535.42 81.0984C1531.96 81.0984 1531.63 80.7738 1531.31 77.5279C1530.98 74.3902 1530.66 74.0656 1526.98 73.741C1523.08 73.4164 1522.87 73.2 1522.87 69.6295V65.9508H1515.29H1507.72V61.623C1507.72 57.4033 1507.61 57.2951 1504.04 57.2951C1500.58 57.2951 1500.26 56.9705 1499.93 53.7246C1499.61 50.5869 1499.28 50.2623 1495.6 49.9377C1491.71 49.6131 1491.49 49.3967 1491.49 45.8262C1491.49 42.3639 1491.28 42.1475 1487.7 42.1475C1484.13 42.1475 1483.92 41.9312 1483.92 38.4689V34.7902L1476.34 34.0328C1468.88 33.2754 1468.77 33.2754 1468.77 30.1377C1468.77 27.3246 1468.45 27 1464.98 27H1461.2V34.8984Z" fill="white"/>
<path d="M2080.41 113.233C2072.51 113.665 2072.51 113.665 2072.51 116.695C2072.51 119.724 2072.4 119.833 2064.39 120.59C2056.39 121.347 2056.28 121.347 2056.28 124.377C2056.28 127.406 2056.17 127.406 2048.16 128.164L2040.05 128.921V132.6C2040.05 136.062 2039.83 136.279 2036.26 136.279C2032.69 136.279 2032.48 136.495 2032.48 140.065C2032.48 143.636 2032.26 143.852 2028.69 143.852C2025.12 143.852 2024.9 144.069 2024.9 147.639C2024.9 151.21 2024.69 151.426 2021.22 151.426C2017.65 151.426 2017.44 151.642 2017.11 155.429C2016.79 159.324 2016.57 159.541 2012.78 159.865L2008.67 160.19V167.764V175.229H2004.89C2001.21 175.229 2001.1 175.338 2001.1 179.557C2001.1 183.777 2000.99 183.885 1997.31 183.885H1993.52V195.246V206.606H1989.74H1985.95V215.695C1985.95 220.564 1985.63 227.705 1985.3 231.383C1984.54 237.767 1984.44 237.983 1981.51 237.983H1978.38V264.924V291.757L1983.68 292.515C1986.6 292.839 1991.69 292.839 1995.04 292.515C2000.77 291.865 2001.1 291.649 2001.1 288.836C2001.1 285.915 2001.31 285.806 2008.56 285.049C2016.03 284.292 2016.14 284.292 2016.46 280.938L2016.79 277.475L2024.69 277.151L2032.48 276.826V273.147C2032.48 269.469 2032.58 269.361 2036.8 269.361C2041.02 269.361 2041.13 269.252 2041.13 265.574V261.787H2048.7H2056.28V258.108V254.538L2062.88 253.78C2066.56 253.456 2071.64 253.131 2074.13 253.131H2078.78L2079.54 261.246L2080.3 269.361H2083.98H2087.66V277.475V285.59H2091.44H2095.23V293.164V300.738H2099.02H2102.8V308.852V316.967H2106.48H2110.16L2110.92 324.541L2111.68 332.115H2115.35H2119.03V339.688V347.262H2122.82C2126.5 347.262 2126.61 347.37 2126.61 351.59C2126.61 355.81 2126.71 355.918 2130.39 355.918H2134.18V363.492V371.065H2142.29H2150.41V363.492V355.918H2154.2C2157.88 355.918 2157.98 355.81 2157.98 351.59C2157.98 347.37 2158.09 347.262 2161.77 347.262H2165.56V339.688V332.115H2169.34H2173.02L2173.35 324.216L2173.67 316.426L2177.03 316.101C2180.27 315.777 2180.49 315.452 2181.14 310.151C2181.46 307.013 2181.79 301.711 2181.79 298.249C2181.79 292.19 2181.79 292.082 2184.92 292.082C2187.74 292.082 2188.06 291.757 2188.71 287.105C2189.58 280.613 2189.58 204.551 2188.71 197.085C2188.06 191.783 2187.85 191.459 2184.92 191.459C2181.79 191.459 2181.79 191.351 2181.79 185.183C2181.79 181.829 2181.46 176.42 2181.14 173.282C2180.38 167.764 2180.38 167.656 2176.81 167.656C2173.24 167.656 2173.13 167.547 2173.13 163.328C2173.13 159.216 2172.91 159 2169.99 159C2166.86 159 2166.75 158.892 2165.99 151.426L2165.23 143.852H2161.66C2158.2 143.852 2157.98 143.636 2157.98 140.065C2157.98 136.387 2157.88 136.279 2153.66 136.279C2149.44 136.279 2149.33 136.17 2149.33 132.492V128.813L2142.08 128.488L2134.72 128.164L2134.4 124.702L2134.07 121.347L2125.96 120.59C2118.06 119.833 2117.95 119.724 2117.95 116.695V113.557H2108.54C2103.24 113.557 2096.64 113.341 2093.61 113.124C2090.69 112.908 2084.63 113.016 2080.41 113.233Z" fill="white"/>
<path d="M2416.57 202.82V206.607H2408.46H2400.35V210.286V213.964L2392.77 214.722L2385.2 215.479V219.158C2385.2 222.62 2384.98 222.836 2381.52 222.836C2378.06 222.836 2377.73 223.161 2377.41 226.299C2377.08 229.545 2376.76 229.869 2373.08 230.194C2369.18 230.518 2368.97 230.735 2368.97 234.305C2368.97 237.768 2368.75 237.984 2365.18 237.984C2361.61 237.984 2361.39 238.2 2361.39 241.771C2361.39 245.341 2361.18 245.558 2357.61 245.558C2353.93 245.558 2353.82 245.666 2353.82 249.886C2353.82 254.105 2353.71 254.213 2350.03 254.213C2346.46 254.213 2346.25 254.43 2346.25 258C2346.25 261.571 2346.03 261.787 2342.57 261.787H2338.89L2338.13 269.253C2337.37 276.718 2337.37 276.827 2334.02 277.151L2330.56 277.476L2330.23 285.266L2329.91 293.164H2326.23H2322.44V300.738V308.312H2318.76H2315.09L2314.33 316.427C2313.57 324.433 2313.57 324.541 2310.54 324.541C2307.51 324.541 2307.51 324.65 2306.75 332.656C2306 340.554 2305.89 340.771 2302.97 340.771C2300.26 340.771 2299.94 341.204 2299.29 345.748C2298.96 348.561 2298.64 355.377 2298.64 360.895V371.066H2294.85H2291.07V398.656V426.246H2298.64H2306.21V422.459C2306.21 418.781 2306.32 418.672 2310.54 418.672C2314.76 418.672 2314.87 418.564 2314.87 414.994V411.315L2322.44 410.558L2330.02 409.8V406.122C2330.02 402.551 2330.13 402.443 2334.35 402.443C2338.56 402.443 2338.67 402.335 2338.67 398.656C2338.67 395.086 2338.89 394.869 2342.46 394.869C2346.03 394.869 2346.25 394.653 2346.25 391.191V387.512L2353.82 386.754L2361.39 385.997V382.318C2361.39 378.856 2361.61 378.64 2365.18 378.64C2368.75 378.64 2368.97 378.423 2368.97 374.853C2368.97 371.174 2369.08 371.066 2373.3 371.066C2377.52 371.066 2377.62 370.958 2377.62 367.279C2377.62 363.709 2377.84 363.492 2381.41 363.492C2384.98 363.492 2385.2 363.276 2385.2 359.813V356.243L2392.66 355.486C2400.24 354.728 2400.24 354.728 2400.56 351.266C2400.89 348.128 2401.21 347.804 2405 347.479C2408.78 347.154 2409 346.938 2409 343.368C2409 339.905 2409.22 339.689 2412.79 339.689C2416.36 339.689 2416.57 339.472 2416.57 335.902V332.115H2424.15H2431.72V328.328V324.541H2439.84H2447.95V335.902V347.263H2451.74H2455.53V359.164V371.066H2459.31H2463.1V382.968V394.869H2466.78H2470.46L2471.21 409.909L2471.97 425.056L2475.43 425.381L2478.79 425.705L2479.11 437.282L2479.44 448.968H2483.12H2486.9V460.869V472.771H2490.69H2494.48V478.938C2494.48 482.4 2494.8 487.81 2495.13 490.84C2495.77 496.25 2496.1 496.574 2498.91 496.574C2501.83 496.574 2501.83 496.682 2502.59 504.689C2503.35 512.695 2503.46 512.804 2506.49 512.804C2509.41 512.804 2509.52 512.912 2510.27 520.377L2511.03 527.951H2514.6H2518.28V536.066V544.181H2525.75H2533.21L2533.97 536.066L2534.73 527.951H2538.4H2542.08V520.377V512.804H2545.87H2549.66V500.902V489H2553.44H2557.23V477.099V465.197H2561.02H2564.8V452.322C2564.8 445.289 2565.13 436.525 2565.45 432.846C2566.21 426.571 2566.32 426.246 2569.13 426.246H2572.05L2572.7 409.151C2573.14 399.846 2573.46 382.859 2573.46 371.607C2573.46 360.246 2573.14 343.368 2572.7 333.954L2572.05 316.968H2569.13H2566.1L2565.35 300.738L2564.59 284.509H2560.91H2557.23V273.148V261.787H2553.44H2549.66V254.213V246.64H2545.98C2542.41 246.64 2542.19 246.423 2541.87 242.528C2541.54 238.85 2541.22 238.525 2538.08 238.2C2534.83 237.876 2534.51 237.551 2534.51 234.089C2534.51 230.518 2534.4 230.41 2530.18 230.41C2525.96 230.41 2525.85 230.302 2525.85 226.623C2525.85 223.053 2525.64 222.836 2522.07 222.836C2518.5 222.836 2518.28 222.62 2518.28 219.158C2518.28 215.587 2518.06 215.371 2514.28 215.046C2510.49 214.722 2510.16 214.397 2509.84 211.259C2509.52 207.797 2509.52 207.797 2501.94 207.04L2494.48 206.282V202.712V199.033H2455.53H2416.57V202.82Z" fill="white"/>
</svg>
